<svg width="180" height="180" viewBox="0 0 180 180" fill="none" xmlns="http://www.w3.org/2000/svg">
  <path d="M140.79 67.14c-7.13-12.35-19.91-19.21-33.23-22.5-13.32-3.28-27.51-2.8-41.11.28-13.61 3.08-26.49 8.55-36.84 17.43-10.35 8.88-18.08 20.83-18.5 34.5-.33 10.58 3.13 20.66 8.31 29.47 5.19 8.8 12.09 16.37 19.68 23.2 7.59 6.82 15.87 12.91 24.28 18.68 4.2 2.88 8.43 5.7 12.63 8.55 4.2 2.84 8.35 5.73 12.57 8.48l.55.35c1.98 1.27 4.22 1.91 6.46 1.91s4.48-.64 6.46-1.91l.56-.35c4.21-2.75 8.36-5.64 12.56-8.48 4.2-2.85 8.42-5.67 12.63-8.55 8.41-5.77 16.69-11.86 24.28-18.68 7.59-6.83 14.49-14.4 19.68-23.2s8.64-18.89 8.31-29.47c-.18-5.76-1.53-11.36-3.82-16.58-2.29-5.22-5.54-10.03-9.45-14.13Z" fill="#FBF0DF"/>
  <path d="M90.18 147.86c-18.37 0-33.65-14.59-33.65-32.59s15.28-33.55 33.65-33.55c18.38 0 33.66 15.55 33.66 33.55s-15.28 32.59-33.66 32.59Z" fill="#FBF0DF"/>
  <path d="M90 160c-24.85 0-45-20.15-45-45s20.15-45 45-45 45 20.15 45 45-20.15 45-45 45Z" stroke="#000" stroke-width="4" stroke-linecap="round" stroke-linejoin="round"/>
  <path d="M71.18 86.82c-1.51 0-2.73 1.23-2.73 2.73 0 1.51 1.22 2.73 2.73 2.73s2.73-1.22 2.73-2.73c0-1.5-1.22-2.73-2.73-2.73Z" fill="#000"/>
  <path d="M108.82 86.82c-1.51 0-2.73 1.23-2.73 2.73 0 1.51 1.22 2.73 2.73 2.73s2.73-1.22 2.73-2.73c0-1.5-1.22-2.73-2.73-2.73Z" fill="#000"/>
  <path d="M60 105c12.15 30 60 30 60 0" stroke="#000" stroke-width="3" stroke-linecap="round"/>
</svg> 