<svg width="180" height="180" viewBox="0 0 180 180" fill="none" xmlns="http://www.w3.org/2000/svg">
  <path d="M90 45c-19.09 0-27.73 9.34-32.76 28.08 6.93-9.11 15.01-12.57 24.21-10.35 5.27 1.27 9.04 4.95 13.21 9.02 6.8 6.65 14.67 14.35 31.87 14.35 19.09 0 27.73-9.34 32.76-28.09-6.93 9.12-15.01 12.58-24.21 10.36-5.27-1.27-9.04-4.96-13.21-9.02-6.8-6.66-14.67-14.35-31.87-14.35ZM57.24 85.94C38.15 85.94 29.51 95.28 24.48 114.02c6.93-9.11 15.01-12.57 24.21-10.35 5.27 1.27 9.04 4.95 13.21 9.02 6.8 6.65 14.67 14.35 31.87 14.35 19.09 0 27.73-9.34 32.76-28.09-6.93 9.12-15.01 12.58-24.21 10.36-5.27-1.27-9.04-4.96-13.21-9.02-6.8-6.66-14.67-14.35-31.87-14.35Z" fill="#000"/>
</svg> 