<svg width="180" height="180" viewBox="0 0 180 180" fill="none" xmlns="http://www.w3.org/2000/svg">
  <path d="M45 90c0-9.94 8.06-18 18-18h9v36h-9c-9.94 0-18-8.06-18-18Z" fill="#F24E1E"/>
  <path d="M72 72h18c9.94 0 18 8.06 18 18s-8.06 18-18 18H72V72Z" fill="#FF7262"/>
  <path d="M72 36h18c9.94 0 18 8.06 18 18s-8.06 18-18 18H72V36Z" fill="#A259FF"/>
  <path d="M45 54c0-9.94 8.06-18 18-18h9v36h-9c-9.94 0-18-8.06-18-18Z" fill="#1ABCFE"/>
  <path d="M45 126c0-9.94 8.06-18 18-18 9.94 0 18 8.06 18 18s-8.06 18-18 18c-9.94 0-18-8.06-18-18Z" fill="#0ACF83"/>
</svg> 