<svg width="180" height="180" viewBox="0 0 180 180" fill="none" xmlns="http://www.w3.org/2000/svg">
  <path d="M152.73 73.64c-5.46-3.91-14.55-6.29-26.18-6.91a96.2 96.2 0 0 0-25.91 3.28c-1.01-1.28-1.88-2.42-2.88-3.7a40.8 40.8 0 0 0-7.37-7.24c12.94-5.32 34.68-7.5 43.77-3.15 2.46 1.28 4.07 2.83 4.34 4.56.27 1.6-.4 3.28-1.62 4.7 1.48.26 2.75.53 3.9.8 2.74.67 4.75 1.46 5.9 2.26.67.67.94 1.33.81 2-.13.8-.94 1.33-1.88 1.46 3.23.8 5.5 1.6 6.3 2.28 1.1.8 1.5 1.6 1.22 2.54-.28.66-1.2 1.2-1.8 1.46 2.15.54 3.63 1.07 4.3 1.73.68.67.95 1.47.82 2.14a2.37 2.37 0 0 1-1.48 1.6c.94.13 1.48.4 1.75.8.13.27.13.54 0 .67-.27.54-1.35.94-3.09.94v-.01Z" fill="#99C905"/>
  <path d="M107.05 81.14a45.45 45.45 0 0 0-9.36-14.47 38.64 38.64 0 0 0-7.37-7.24C78.7 52.2 64.55 48.78 49.3 50.92c-12.64 1.87-24.05 7.64-32.05 15.84-6.44 6.37-10.5 13.75-11.36 21.04-.54 4.7.27 9.1 2.28 13a22.63 22.63 0 0 0 8.59 9.5c7.78 4.84 18.68 7.1 30.3 6.24a90.15 90.15 0 0 0 28.32-6.37c.42-.14.82-.27 1.24-.4.8.8 1.6 1.46 2.5 2.26a44.7 44.7 0 0 0 8.73 6.78c-2.42.8-4.9 1.6-7.5 2.27-13.2 3.7-27.3 5.05-41.37 2.95-16.82-2.68-28.99-10.58-33.2-21.3-1.88-4.83-2.15-10.05-1.07-14.88.8-3.97 2.5-7.65 4.9-11.09-1.08 3.57-1.48 7.14-1.21 10.58.53 6.64 3.76 12.09 9.8 16.2 9.65 6.64 24.72 8.92 41.8 6.65 11.82-1.6 23.92-5.18 33.3-9.78 1.35-.67 2.56-1.33 3.77-2A44.92 44.92 0 0 0 106 81.14h1.05Z" fill="#99C905"/>
  <path d="M106.78 81.14h-1.06a44.92 44.92 0 0 1-9.5 16.34c-1.2.67-2.42 1.33-3.77 2-9.5 4.6-21.47 8.18-33.3 9.78-17.08 2.27-32.15 0-41.8-6.65-6.03-4.11-9.26-9.56-9.8-16.2-.26-3.44.14-7.01 1.22-10.58l-.54.8c-5.9 9.51-6.57 19.03-1.75 26.68 4.89 7.64 15.7 12.48 30.7 13.55a96.7 96.7 0 0 0 42.85-6.5c1.62-.67 3.1-1.34 4.57-2 .4-.14.67-.27 1.07-.4 1.75-.81 3.36-1.62 4.9-2.42 11.56-5.85 19.47-12.62 18.68-19.03-.27-2.14-1.21-3.97-2.42-5.4.13-.01.13-.01 0-.01v.01Z" fill="#E5E5E5"/>
  <path d="M157.76 77.07c-.67-1.07-2.82-2-6.57-2.8.68-.28 1.34-.68 1.74-1.2.68-1.07.4-2.14-.94-3.21-1.2-1.33-3.9-2.27-7.5-3.14l.27-.14c.94-.53 1.61-1.33 1.75-2.4.27-1.33-.4-2.54-1.88-3.57-2.15-1.33-5.36-2.27-9.4-2.8-6.42-.94-14.73-.4-24.22 1.33-9.78 1.87-18.5 4.83-24.73 8.38a35.74 35.74 0 0 0-4.34 3.02c3.36 2.8 6.3 6.37 8.72 10.58h1.08c.94 2.14 1.48 4.42 1.48 6.78 0 .54 0 1.2-.14 1.73.67.81 1.21 1.62 1.61 2.42 1.35 2.68 1.22 5.31-.4 7.64-1.48 2.28-4.36 4.3-8.32 6.04l-1.61.8c-1.48.68-2.96 1.22-4.5 1.87 4.23 2.28 9.13 4.03 14.87 5.18 15.54 3.3 31.54 2.68 44.32-2.14 11.29-4.3 17.45-11.48 15.84-19.7-.54-2.67-2.02-5.05-4.3-6.9 1.62-.14 2.96-.54 3.76-1.34.95-.94 1.21-2 .4-3.3-1.34-2.28-5.36-3.7-12.19-4.97-2.14-.4-4.7-.8-7.64-1.07 7.24.28 13.67 1.33 18.23 3.21 1.21.4 2.15.94 2.69 1.6.8.94.8 1.87 0 2.8v.01ZM100.7 89.78c.14-.53.14-1.2.14-1.73 0-2.36-.54-4.64-1.48-6.78h-1.08c-.67-1.33-1.35-2.54-2.15-3.7.4.4.8.8 1.21 1.33 2.28 2.41 3.9 5.1 4.97 8.05a15.38 15.38 0 0 1-1.61 2.83Z" fill="#99C905"/>
</svg> 