<svg width="180" height="180" viewBox="0 0 180 180" fill="none" xmlns="http://www.w3.org/2000/svg">
  <path d="M133.17 94.99c-1.21-1.04-4.32-1.93-8.98-.15-10.2 3.88-14.51-1.35-15.57-3.43 7.92-12.01 14.07-27.22 10.65-31.05-11.7-13.05-31.85-6.87-32.24-6.72l-.1.03c-2.23-.47-4.72-.75-7.5-.8-5.12-.1-9 1.34-11.96 3.58 0 0-36.26-14.99-34.61 18.82.37 7.22 10.58 54.75 22.72 40.32 4.44-5.28 8.72-9.74 8.72-9.74 2.13 1.42 4.69 2.14 7.36 1.88l.2-.18c.07.56.02 1.1-.12 1.73a102.65 102.65 0 0 1 2.52-3.44s4.8 1.07 11.46.83c6.82-.26 10.57-1.76 10.57-1.76s.18 7.36 2.86 14.62c3.66 7.25 9.13 10.72 15.1 8.48 4.6-1.72 10.06-4.68 10.47-16.95.27-8.3.71-12.7 1.37-14.76.91-2.8 2.94-6.22 4.98-5.63 2.5.73 4.85.44 5.93 1.1 2.08 1.27 3.63 2.05 5.5 2.77 3.19 1.23 3.91 8.28-3.92 7 0 0 1.42 11.15 13.54 12.2 11.94.98 17.93-4.58 18.82-6.58.89-2 1.34-3.17-.8-4.31l-1.1-.47-35.68-11.36Z" fill="#336791"/>
  <path d="M93.29 49.8a26.5 26.5 0 0 0-5.85.65c-.8.18-2.14.18-2.16 1.16-.02.6.61.98 1.05 1.24.83.5 1.74.84 2.67 1.14 1.08.36 2.2.67 3.3.96 2.04.53 4.33 1.2 6.28 2.04 1.13.48 2.24 1.08 3.31 1.72 2.63 1.57 5.71 3.38 7.79 5.72.93 1.06 1.4 2.3 2.24 3.4.3.4.73.82 1.09 1.2 1.97 2.08 4.22 5.95 6.08 9.81.74 1.53 1.29 3.14 1.97 4.69.67 1.54 1.27 3.14 2.24 4.5.73 1.03 3.2 1.58 4.36 2.13 1.6.76 4.07 1.46 5.5 2.42 1.96 1.33 3.85 2.78 5.63 4.28.89.75 3.61 2.01 3.78 3.12-2.19-.05-3.88.33-5.3.87-1.43.55-3.3 1.68-4.26 1.56-.66-1.36-.83-3.36-1.29-5.04-.75-2.76-1.55-5.48-2.7-8.1-1.15-2.62-2.4-5.25-4.16-7.55-1.1-1.44-2.46-2.64-3.59-4.04-.6-.73-1.45-1.09-1.74-2.04-.76-2.55 1.13-3.79 1.8-5.63.47-1.3.92-2.72.67-4.23-.11-.7-.32-1.76-.84-2.04-1.01-.56-2.2.42-2.8.84-.9.63-1.9 1.22-2.6 2.03a23.43 23.43 0 0 0-2.49 4.41c-1.68 3.67-2.46 8.69-3.19 13.39-.32 2.03-.05 4.13-.47 5.9-.68-1.35-1.7-2.53-2.46-3.75a52.55 52.55 0 0 1-4.3-9.16c-.82-2.2-1.52-4.65-2.14-6.9-.31-1.12-.33-2.36-1.06-2.83-.97 1.46-2.66 2.7-3.5 4.38a17.62 17.62 0 0 0-1.8 4.48c-1.24 4.68-1.87 12.38 1.26 15.83.6.66 2.03 2.12 1.37 3.46-.32.66-1.37.96-1.95 1.27a14.46 14.46 0 0 0-1.95 1.18c-1.35 1.05-2.39 2.36-3.5 3.57-2.2 2.39-4.2 5.14-5.86 7.81a166.1 166.1 0 0 0-4.5 7.9c-.75 1.4-1.24 2.93-2.14 4.23-4.5 6.55-9.45 10.55-16.92 14.46-3.22 1.68-7.05 2.38-11.15 3.24-2.15.45-4.32.2-6.5.42-1.39.14-2.76.65-4.14.88-2.74.44-5.66-.68-8.17-1.8-3.58-1.63-12.76-7.06-12.76-7.06s6.1 9.04 9.71 12.03c3.03 2.51 6.44 4.9 10.27 6.35 3.27 1.25 6.98 1.82 11.07 1.96 12.56.4 21.25-1.54 25.89-3.57 16.66-7.28 27.54-17.94 35.72-28.27l.32.4c-.63 1.25-1.1 2.6-1.82 3.81-1.95 3.28 1.8 4.74 3.88 6.29l5.79 4.32c3.18 1.92 6.8 3.8 10.5 4.95 2.44.77 5.18 2.06 7.8 2.14V92.25c-.36-.61-.42-1.33-.8-1.95a18.5 18.5 0 0 0-2.8-3.79c-1.22-1.33-2.4-3.02-3.5-4.5-1.1-1.5-2.22-2.98-3.19-4.5-.96-1.51-2.67-2.31-2.92-4.38.88-.51 2.44-.12 3.5-.27 1.7-.25 3.21-.8 4.67-1.34 1.46-.55 2.97-1.14 4.31-1.96.91-.55 4.2-2.32 4.38-3.62-4.84 0-8.53.51-11.63 1.33-1.06.28-2.87.27-3.07 1.1 0 0 .4.43.64.59 1.36.88 3.95 2.4 5.12 3.8a28.3 28.3 0 0 1 3.71 6.98c.29 1.02.42 2.02.8 2.97.42 1.06.9 2.16 1.3 3.26.41 1.09.73 2.22 1.33 3.11.29.43 1.07.63 1.46.95.67.51 1.7 1.15 2.19 1.75.9 1.1 1.66 2.4 2.43 3.63.77 1.22 1.6 2.48 2.68 3.46.53.49 2.62.76 3.58 1.03 1.46.41 3.7.8 4.98 1.33.21.09.4.18.66.28" fill="#fff"/>
  <path fill-rule="evenodd" clip-rule="evenodd" d="M79.22 50.53c-1.2.03-2.29.13-3.26.34 0 0 .01 0 0 0h.01c.97-.22 2.06-.35 3.25-.34Z" fill="#fff" fill-opacity=".5"/>
</svg> 