<svg width="180" height="180" viewBox="0 0 180 180" fill="none" xmlns="http://www.w3.org/2000/svg">
  <path fill-rule="evenodd" clip-rule="evenodd" d="M53.79 137.88c-2.69 0-5.06-1.84-5.72-4.48L27.59 49.47a5.83 5.83 0 0 1 .85-4.97 5.83 5.83 0 0 1 4.2-2.38l79.68-9.48c1.85-.22 3.64.37 4.95 1.58a5.84 5.84 0 0 1 1.87 4.86l-11.32 93a5.83 5.83 0 0 1-3.95 4.86l-48.3 20.66a5.8 5.8 0 0 1-1.78.28ZM56.4 63.23a2.92 2.92 0 0 0-1.9 5.15l27.19 23.16a2.92 2.92 0 0 0 4.04-.3l15.7-17.12a2.92 2.92 0 0 0-1.95-5.07L56.4 63.24Z" fill="url(#a)"/>
  <defs>
    <linearGradient id="a" x1="39" y1="37.5" x2="116.5" y2="136.5" gradientUnits="userSpaceOnUse">
      <stop stop-color="#4966DE"/>
      <stop offset=".21" stop-color="#4A6AE2"/>
      <stop offset="1" stop-color="#5BF4FD"/>
    </linearGradient>
  </defs>
</svg> 