<svg width="180" height="180" viewBox="0 0 180 180" fill="none" xmlns="http://www.w3.org/2000/svg">
  <path d="M90 30c-24 0-39 12-45 36 9-12 19.5-16.5 31.5-13.5 6.83 1.69 11.72 6.61 17.12 12.05 8.8 8.86 19 19.12 41.12 19.12 24 0 39-12 45-36-9 12-19.5 16.5-31.5 13.5-6.83-1.7-11.72-6.61-17.12-12.05-8.8-8.86-19-19.12-41.12-19.12ZM45 96c-24 0-39 12-45 36 9-12 19.5-16.5 31.5-13.5 6.83 1.7 11.72 6.61 17.12 12.05 8.8 8.86 19 19.12 41.12 19.12 24 0 39-12 45-36-9 12-19.5 16.5-31.5 13.5-6.83-1.7-11.72-6.61-17.12-12.05-8.8-8.86-19-19.12-41.12-19.12Z" fill="#06B6D4"/>
</svg> 