<svg width="180" height="180" viewBox="0 0 180 180" fill="none" xmlns="http://www.w3.org/2000/svg">
  <path fill-rule="evenodd" clip-rule="evenodd" d="M89.92 35c-30.32 0-54.92 24.6-54.92 54.92 0 30.33 24.6 54.92 54.92 54.92 30.33 0 54.92-24.6 54.92-54.92 0-30.33-24.6-54.92-54.92-54.92Zm0 98.86c-24.19 0-43.94-19.74-43.94-43.94 0-24.19 19.75-43.94 43.94-43.94 24.2 0 43.94 19.75 43.94 43.94 0 24.2-19.75 43.94-43.94 43.94Z" fill="#0065FF"/>
  <path fill-rule="evenodd" clip-rule="evenodd" d="M90 63c-15.02 0-27 12.31-27 27s12.31 27 27 27 27-12.31 27-27-12.31-27-27-27Zm0 43.12c-8.99 0-16.2-7.22-16.2-16.2 0-8.99 7.21-16.2 16.2-16.2s16.2 7.21 16.2 16.2c0 8.98-7.21 16.2-16.2 16.2Z" fill="#202124"/>
  <path d="M72 90c0 9.94 8.06 18 18 18s18-8.06 18-18-8.06-18-18-18-18 8.06-18 18Z" fill="#F0EC00"/>
</svg> 